<?xml version="1.0" encoding="UTF-8" standalone="no"?>
<svg
   id="svg15"
   version="1.1"
   viewBox="0 0 96 96"
   sodipodi:docname="kde-folder.svg"
   inkscape:version="1.1.1 (3bf5ae0d25, 2021-09-20)"
   xmlns:inkscape="http://www.inkscape.org/namespaces/inkscape"
   xmlns:sodipodi="http://sodipodi.sourceforge.net/DTD/sodipodi-0.dtd"
   xmlns="http://www.w3.org/2000/svg"
   xmlns:svg="http://www.w3.org/2000/svg">
  <sodipodi:namedview
     id="namedview16"
     pagecolor="#ffffff"
     bordercolor="#666666"
     borderopacity="1.0"
     inkscape:pageshadow="2"
     inkscape:pageopacity="0.0"
     inkscape:pagecheckerboard="0"
     showgrid="false"
     inkscape:zoom="6.8645833"
     inkscape:cx="47.781487"
     inkscape:cy="48.291351"
     inkscape:window-width="1920"
     inkscape:window-height="1139"
     inkscape:window-x="0"
     inkscape:window-y="32"
     inkscape:window-maximized="1"
     inkscape:current-layer="svg15" />
  <defs
     id="defs5455">
    <linearGradient
       id="linearGradient4178"
       x2="0"
       y1="541.79797"
       y2="499.78421"
       gradientTransform="matrix(1.4999996,0,0,1.4995115,-576.85701,-725.43213)"
       gradientUnits="userSpaceOnUse">
      <stop
         id="stop4174-6-7"
         stop-color="#3daee9"
         offset="0" />
      <stop
         id="stop4176-6-5"
         stop-color="#6cc1ef"
         offset="1" />
    </linearGradient>
  </defs>
  <g
     id="layer1"
     transform="translate(-384.57144,-483.798)"
     stroke-width="1.5">
    <path
       id="rect4180"
       transform="translate(384.57144,483.798)"
       d="m6 9-1.17e-5 20.999996h84l1.2e-5 -14.999996h-42l-6-6z"
       fill="#147eb8" />
    <path
       id="rect4113"
       transform="translate(384.57144,483.798)"
       d="M 38.999988,23.999996 33,30 H 5 V 87 H 91 V 24 Z"
       fill="url(#linearGradient4178)" />
    <g
       fill-opacity=".235294"
       id="g12">
      <path
         id="path4224-1"
         d="m389.57143 513.798v1h29l4.99999-6.99983-6.00001 6z"
         fill="#fff"
         fill-rule="evenodd" />
      <path
         id="path4228-0"
         d="m390.57143 512.798v1.00017h26.99998l6.00002-6.00017-7 5z"
         fill-rule="evenodd" />
      <path
         id="path4151-2"
         transform="translate(384.57144,483.798)"
         d="m4.9999883 85.999996v1l86-0.01628v-0.983722z" />
      <path
         id="path4196"
         transform="translate(384.57144,483.798)"
         d="M 42,9 46.999988,15.999996 90,16 V 15 H 48 Z"
         fill="#fff"
         fill-rule="evenodd" />
    </g>
  </g>
  <g
     id="g850"
     transform="translate(-9.9787552,45.782813)">
    <path
       style="color:#000000;font-style:normal;font-variant:normal;font-weight:normal;font-stretch:normal;font-size:medium;line-height:1.25;font-family:sans-serif;font-variant-ligatures:normal;font-variant-position:normal;font-variant-caps:normal;font-variant-numeric:normal;font-variant-alternates:normal;font-variant-east-asian:normal;font-feature-settings:normal;font-variation-settings:normal;text-indent:0;text-align:start;text-decoration:none;text-decoration-line:none;text-decoration-style:solid;text-decoration-color:#000000;letter-spacing:0px;word-spacing:0px;text-transform:none;writing-mode:lr-tb;direction:ltr;text-orientation:mixed;dominant-baseline:auto;baseline-shift:baseline;text-anchor:start;white-space:normal;shape-padding:0;shape-margin:0;inline-size:0;clip-rule:nonzero;display:inline;overflow:visible;visibility:visible;isolation:auto;mix-blend-mode:normal;color-interpolation:sRGB;color-interpolation-filters:linearRGB;solid-color:#000000;solid-opacity:1;vector-effect:none;fill:#333333;fill-opacity:1;fill-rule:nonzero;stroke:none;stroke-width:3.07103;stroke-linecap:butt;stroke-linejoin:miter;stroke-miterlimit:4;stroke-dasharray:none;stroke-dashoffset:0;stroke-opacity:1;color-rendering:auto;image-rendering:auto;shape-rendering:auto;text-rendering:auto;enable-background:accumulate;stop-color:#000000"
       d="m 36.566185,-3.6649 h 30.51773 v 4.04995 h -12.80633 v 31.51804 h -4.90507 V 0.38505 h -12.80633 z"
       id="path872" />
    <path
       d="m 64.629835,-9.9560597 c -0.71136,0.12539 -1.18573,0.80286 -1.06025,1.5142 0.12528,0.71136 0.80305,1.18594 1.5143,1.06032 1.43171,-0.25201 2.87684,0.0679 4.06809,0.90199 1.19113,0.83403 1.98604,2.0827297 2.23849,3.5139297 0.0627,0.35555 0.26355,0.65205 0.53758,0.84393 0.2738,0.19172 0.62112,0.27905 0.97667,0.21635 0.71136,-0.12537 1.18577,-0.8029 1.06025,-1.51419 -0.37316,-2.11914 -1.55018,-3.9672697 -3.31329,-5.2018097 -1.7638,-1.23503 -3.90236,-1.7084903 -6.02184,-1.33472 z"
       id="path2"
       style="fill:#333333;stroke-width:0.0687194" />
    <path
       d="m 63.200315,-13.02049 c 0.27396,0.19183 0.62122,0.27913 0.97678,0.21642 2.86494,-0.50471 5.75564,0.13544 8.13966,1.80474 2.3839,1.6692203 3.97535,4.1658403 4.47988,7.03156 0.12533,0.71141 0.80297,1.18591 1.51424,1.06028 0.71135,-0.12538 1.18584,-0.80302 1.06032,-1.5143 -0.626,-3.5521897 -2.59848,-6.64932 -5.55474,-8.71932 -2.956,-2.06982 -6.54067,-2.86401 -10.09339,-2.23762 -0.7113,0.12543 -1.18579,0.80306 -1.06033,1.5143 0.0629,0.35571 0.26355,0.65206 0.53758,0.84394 z"
       id="path4"
       style="fill:#333333;stroke-width:0.0687194" />
  </g>
</svg>
